<?xml version="1.0" encoding="utf-8"?>
<!-- Generator: Adobe Illustrator 25.4.1, SVG Export Plug-In . SVG Version: 6.00 Build 0)  -->
<svg version="1.1" id="Capa_1" xmlns="http://www.w3.org/2000/svg" xmlns:xlink="http://www.w3.org/1999/xlink" x="0px" y="0px"
	 viewBox="0 0 500 500" style="enable-background:new 0 0 500 500;" xml:space="preserve">
<style type="text/css">
	.st0{fill:#39A1E2;}
	.st1{fill:#FFFFFF;}
</style>
<rect class="st0" width="500" height="500"/>
<g id="Capa_2_1_">
	<g id="Capa_1-2">
		<path class="st1" d="M177.9,315.3H94.5l-13.8,39.9H36.6l75.3-209.7h48.9l75.3,209.7h-44.4L177.9,315.3z M166.5,281.7l-30.3-87.6
			l-30.3,87.6H166.5z"/>
		<path class="st1" d="M410,208.8c-4.5-8.5-11.4-15.5-19.8-20.1s-18.2-6.9-29.4-6.9c-12.4,0-23.4,2.8-33,8.4
			c-9.7,5.7-17.5,14-22.5,24c-5.4,10.4-8.1,22.4-8.1,36c0,14,2.8,26.2,8.3,36.6c5.2,10.1,13.1,18.4,23,24c9.8,5.6,21.2,8.4,34.2,8.4
			c16,0,29.1-4.3,39.3-12.8c10.2-8.5,16.9-20.4,20.1-35.6h-72v-32.1h113.4v36.6c-2.8,14.7-9,28.5-18,40.5
			c-9.4,12.6-21.6,22.8-35.5,29.9c-14.5,7.5-30.8,11.2-48.8,11.3c-20.2,0-38.5-4.6-54.8-13.7c-16.1-8.9-29.4-22-38.4-37.9
			c-9.3-16.2-13.9-34.6-13.9-55.2s4.7-39,13.9-55.3c9-16,22.3-29.2,38.4-38.1c16.3-9.1,34.4-13.7,54.4-13.7
			c23.6,0,44.1,5.8,61.5,17.3s29.4,27.6,36,48.4L410,208.8L410,208.8z"/>
	</g>
</g>
</svg>
